/usr/bin/start-video-rec.sh: line 93: kill: (876) - No such process
ffmpeg version 2.8.17-0ubuntu0.1 Copyright (c) 2000-2020 the FFmpeg developers
  built with gcc 5.4.0 (Ubuntu 5.4.0-6ubuntu1~16.04.12) 20160609
  configuration: --prefix=/usr --extra-version=0ubuntu0.1 --build-suffix=-ffmpeg --toolchain=hardened --libdir=/usr/lib/x86_64-linux-gnu --incdir=/usr/include/x86_64-linux-gnu --cc=cc --cxx=g++ --enable-gpl --enable-shared --disable-stripping --disable-decoder=libopenjpeg --disable-decoder=libschroedinger --enable-avresample --enable-avisynth --enable-gnutls --enable-ladspa --enable-libass --enable-libbluray --enable-libbs2b --enable-libcaca --enable-libcdio --enable-libflite --enable-libfontconfig --enable-libfreetype --enable-libfribidi --enable-libgme --enable-libgsm --enable-libmodplug --enable-libmp3lame --enable-libopenjpeg --enable-libopus --enable-libpulse --enable-librtmp --enable-libschroedinger --enable-libshine --enable-libsnappy --enable-libsoxr --enable-libspeex --enable-libssh --enable-libtheora --enable-libtwolame --enable-libvorbis --enable-libvpx --enable-libwavpack --enable-libwebp --enable-libx265 --enable-libxvid --enable-libzvbi --enable-openal --enable-opengl --enable-x11grab --enable-libdc1394 --enable-libiec61883 --enable-libzmq --enable-frei0r --enable-libx264 --enable-libopencv
  libavutil      54. 31.100 / 54. 31.100
  libavcodec     56. 60.100 / 56. 60.100
  libavformat    56. 40.101 / 56. 40.101
  libavdevice    56.  4.100 / 56.  4.100
  libavfilter     5. 40.101 /  5. 40.101
  libavresample   2.  1.  0 /  2.  1.  0
  libswscale      3.  1.101 /  3.  1.101
  libswresample   1.  2.101 /  1.  2.101
  libpostproc    53.  3.100 / 53.  3.100
Input #0, matroska,webm, from '/home/seluser/videos/vid_chrome_or_firefox_40004.mkv':
  Metadata:
    ENCODER         : Lavf56.40.101
  Duration: 00:00:44.70, start: 0.000000, bitrate: 99 kb/s
    Stream #0:0: Video: h264 (Constrained Baseline), yuv420p, 1366x768, SAR 1:1 DAR 683:384, 10 fps, 10 tbr, 1k tbn, 20 tbc (default)
    Metadata:
      ENCODER         : Lavc56.60.100 libx264
      DURATION        : 00:00:44.700000000
[libx264 @ 0xa9d0e0] using SAR=1/1
[libx264 @ 0xa9d0e0] using cpu capabilities: MMX2 SSE2Fast SSSE3 SSE4.2 AVX FMA3 AVX2 LZCNT BMI2
[libx264 @ 0xa9d0e0] profile Constrained Baseline, level 3.2
[libx264 @ 0xa9d0e0] 264 - core 148 r2643 5c65704 - H.264/MPEG-4 AVC codec - Copyleft 2003-2015 - http://www.videolan.org/x264.html - options: cabac=0 ref=1 deblock=0:0:0 analyse=0:0 me=dia subme=0 psy=1 psy_rd=1.00:0.00 mixed_ref=0 me_range=16 chroma_me=1 trellis=0 8x8dct=0 cqm=0 deadzone=21,11 fast_pskip=1 chroma_qp_offset=0 threads=3 lookahead_threads=1 sliced_threads=0 nr=0 decimate=1 interlaced=0 bluray_compat=0 constrained_intra=0 bframes=0 weightp=0 keyint=250 keyint_min=10 scenecut=0 intra_refresh=0 rc=crf mbtree=0 crf=23.0 qcomp=0.60 qpmin=0 qpmax=69 qpstep=4 ip_ratio=1.40 aq=0
Output #0, mp4, to '/home/seluser/videos/vid_chrome_or_firefox_40004.mp4':
  Metadata:
    encoder         : Lavf56.40.101
    Stream #0:0: Video: h264 (libx264) ([33][0][0][0] / 0x0021), yuv420p, 1366x768 [SAR 1:1 DAR 683:384], q=-1--1, 10 fps, 10240 tbn, 10 tbc (default)
    Metadata:
      DURATION        : 00:00:44.700000000
      encoder         : Lavc56.60.100 libx264
Stream mapping:
  Stream #0:0 -> #0:0 (h264 (native) -> h264 (libx264))
Press [q] to stop, [?] for help
frame=    3 fps=0.0 q=0.0 size=       0kB time=00:00:00.00 bitrate=N/A    
frame=    6 fps=5.0 q=11.0 size=      26kB time=00:00:00.20 bitrate=1068.4kbits/s    
frame=    7 fps=3.6 q=10.0 size=      30kB time=00:00:00.30 bitrate= 816.7kbits/s    
frame=    8 fps=3.0 q=10.0 size=      32kB time=00:00:00.40 bitrate= 647.2kbits/s    
frame=   11 fps=3.1 q=9.0 size=      37kB time=00:00:00.70 bitrate= 436.5kbits/s    
frame=   12 fps=2.8 q=9.0 size=      38kB time=00:00:00.80 bitrate= 388.0kbits/s    
frame=   23 fps=4.8 q=9.0 size=      40kB time=00:00:01.90 bitrate= 171.9kbits/s    
frame=   31 fps=5.8 q=12.0 size=     107kB time=00:00:02.70 bitrate= 324.1kbits/s    
frame=   36 fps=6.2 q=15.0 size=     131kB time=00:00:03.20 bitrate= 334.7kbits/s    
frame=   42 fps=6.6 q=10.0 size=     154kB time=00:00:03.80 bitrate= 331.4kbits/s    
frame=   51 fps=7.3 q=9.0 size=     158kB time=00:00:04.70 bitrate= 275.6kbits/s    
frame=   63 fps=8.3 q=14.0 size=     214kB time=00:00:05.90 bitrate= 296.6kbits/s    
frame=   69 fps=8.5 q=10.0 size=     257kB time=00:00:06.50 bitrate= 323.8kbits/s    
frame=   74 fps=8.5 q=9.0 size=     265kB time=00:00:07.00 bitrate= 310.5kbits/s    
frame=   86 fps=9.2 q=9.0 size=     268kB time=00:00:08.20 bitrate= 267.9kbits/s    
frame=   95 fps=9.7 q=11.0 size=     281kB time=00:00:09.10 bitrate= 252.6kbits/s    
frame=  105 fps= 10 q=10.0 size=     308kB time=00:00:10.10 bitrate= 249.9kbits/s    
frame=  108 fps=9.9 q=9.0 size=     311kB time=00:00:10.40 bitrate= 244.6kbits/s    
frame=  114 fps=9.9 q=9.0 size=     312kB time=00:00:11.00 bitrate= 232.7kbits/s    
frame=  133 fps= 11 q=9.0 size=     313kB time=00:00:12.90 bitrate= 198.8kbits/s    
frame=  146 fps= 12 q=10.0 size=     321kB time=00:00:14.20 bitrate= 185.2kbits/s    
frame=  159 fps= 12 q=9.0 size=     337kB time=00:00:15.50 bitrate= 178.0kbits/s    
frame=  172 fps= 13 q=9.0 size=     338kB time=00:00:16.80 bitrate= 164.8kbits/s    
frame=  190 fps= 13 q=9.0 size=     341kB time=00:00:18.60 bitrate= 150.0kbits/s    
frame=  202 fps= 14 q=9.0 size=     341kB time=00:00:19.80 bitrate= 141.3kbits/s    
frame=  222 fps= 15 q=11.0 size=     342kB time=00:00:21.80 bitrate= 128.7kbits/s    
frame=  243 fps= 15 q=9.0 size=     349kB time=00:00:23.90 bitrate= 119.5kbits/s    
frame=  264 fps= 16 q=9.0 size=     499kB time=00:00:26.00 bitrate= 157.2kbits/s    
frame=  301 fps= 18 q=9.0 size=     505kB time=00:00:29.70 bitrate= 139.2kbits/s    
frame=  335 fps= 19 q=9.0 size=     511kB time=00:00:33.10 bitrate= 126.6kbits/s    
frame=  366 fps= 21 q=9.0 size=     518kB time=00:00:36.20 bitrate= 117.3kbits/s    
frame=  373 fps= 21 q=-1.0 Lsize=     523kB time=00:00:37.30 bitrate= 114.9kbits/s    
video:521kB audio:0kB subtitle:0kB other streams:0kB global headers:0kB muxing overhead: 0.433541%
[libx264 @ 0xa9d0e0] frame I:2     Avg QP:13.00  size: 85071
[libx264 @ 0xa9d0e0] frame P:371   Avg QP: 9.63  size:   978
[libx264 @ 0xa9d0e0] mb I  I16..4: 100.0%  0.0%  0.0%
[libx264 @ 0xa9d0e0] mb P  I16..4:  1.1%  0.0%  0.0%  P16..4:  1.3%  0.0%  0.0%  0.0%  0.0%    skip:97.6%
[libx264 @ 0xa9d0e0] coded y,uvDC,uvAC intra: 11.2% 8.5% 8.1% inter: 0.3% 0.9% 0.3%
[libx264 @ 0xa9d0e0] i16 v,h,dc,p: 79% 20%  1%  0%
[libx264 @ 0xa9d0e0] i8c dc,h,v,p: 77% 19%  3%  0%
[libx264 @ 0xa9d0e0] kb/s:114.30
Exiting normally, received signal 15.
